<svg width="25" height="22" viewBox="0 0 25 22" fill="none" xmlns="http://www.w3.org/2000/svg">
<path d="M0.432188 10.4678L6.07025 12.5721L8.25252 19.5903C8.39215 20.0398 8.9418 20.2059 9.30663 19.9076L12.4494 17.3456C12.7788 17.0772 13.248 17.0638 13.5923 17.3137L19.2607 21.4291C19.651 21.7128 20.2039 21.4989 20.3018 21.0273L24.4542 1.05352C24.561 0.538374 24.0548 0.108624 23.5643 0.298337L0.425581 9.22457C-0.145434 9.44478 -0.140459 10.2532 0.432188 10.4678ZM7.90082 11.4519L18.9197 4.66541C19.1177 4.5438 19.3215 4.81157 19.1514 4.96931L10.0577 13.4224C9.73801 13.7199 9.53182 14.1181 9.47342 14.5503L9.16365 16.846C9.12262 17.1525 8.69206 17.1829 8.60748 16.8863L7.4161 12.7001C7.27965 12.2226 7.4785 11.7126 7.90082 11.4519Z" fill="black"/>
</svg>
