<svg width="15" height="23" viewBox="0 0 15 23" fill="none" xmlns="http://www.w3.org/2000/svg">
<path d="M14.1022 0.0046934L10.6456 0C6.76211 0 4.25245 2.17891 4.25245 5.55135V8.1109H0.776927C0.4766 8.1109 0.233398 8.31694 0.233398 8.57108V12.2796C0.233398 12.5337 0.476877 12.7395 0.776927 12.7395H4.25245V22.0972C4.25245 22.3514 4.49566 22.5572 4.79598 22.5572H9.33056C9.63089 22.5572 9.87409 22.3511 9.87409 22.0972V12.7395H13.9378C14.2381 12.7395 14.4813 12.5337 14.4813 12.2796L14.483 8.57108C14.483 8.44906 14.4256 8.33219 14.3238 8.24583C14.222 8.15947 14.0834 8.1109 13.9392 8.1109H9.87409V5.94114C9.87409 4.89827 10.1678 4.36885 11.7731 4.36885L14.1017 4.36815C14.4017 4.36815 14.6449 4.16211 14.6449 3.90819V0.464647C14.6449 0.210968 14.402 0.00516274 14.1022 0.0046934Z" fill="black"/>
</svg>
