<svg width="23" height="23" viewBox="0 0 23 23" fill="none" xmlns="http://www.w3.org/2000/svg">
<path d="M5.54395 0C4.1923 0.00404889 2.89718 0.542782 1.94141 1.49854C0.985653 2.4543 0.44692 3.74943 0.442871 5.10108V17.4561C0.44692 18.8077 0.985653 20.1029 1.94141 21.0586C2.89718 22.0144 4.1923 22.5531 5.54395 22.5572H17.899C19.2506 22.5531 20.5457 22.0144 21.5015 21.0586C22.4573 20.1029 22.996 18.8077 23.0001 17.4561V5.10108C22.996 3.74943 22.4573 2.4543 21.5015 1.49854C20.5457 0.542782 19.2506 0.00404889 17.899 0H5.54395ZM11.7215 16.7992C10.6285 16.7993 9.56004 16.4753 8.65121 15.8682C7.74239 15.261 7.03402 14.398 6.61568 13.3883C6.19734 12.3786 6.08782 11.2674 6.30098 10.1955C6.51414 9.12348 7.0404 8.13879 7.8132 7.3659C8.58601 6.59302 9.57065 6.06666 10.6426 5.85339C11.7146 5.64012 12.8257 5.74952 13.8355 6.16776C14.8453 6.58599 15.7083 7.29427 16.3156 8.20304C16.9228 9.1118 17.2469 10.1802 17.2469 11.2732C17.2469 12.7387 16.6648 14.1442 15.6286 15.1805C14.5924 16.2168 13.187 16.7991 11.7215 16.7992ZM18.6175 6.06097C18.3096 6.06097 18.0085 5.96964 17.7524 5.79853C17.4964 5.62743 17.2968 5.38422 17.1789 5.09969C17.0611 4.81515 17.0303 4.50205 17.0904 4.2C17.1505 3.89794 17.2988 3.62049 17.5166 3.40274C17.7344 3.18499 18.0119 3.03671 18.3139 2.97666C18.616 2.91661 18.9291 2.94749 19.2136 3.06538C19.4981 3.18328 19.7413 3.3829 19.9124 3.639C20.0834 3.89511 20.1747 4.19618 20.1746 4.50416C20.1746 4.70863 20.1344 4.91109 20.0561 5.09999C19.9779 5.28889 19.8632 5.46053 19.7186 5.60509C19.574 5.74966 19.4023 5.86433 19.2134 5.94255C19.0245 6.02077 18.822 6.06101 18.6175 6.06097Z" fill="black"/>
</svg>
