<svg width="24" height="15" viewBox="0 0 24 15" fill="none" xmlns="http://www.w3.org/2000/svg">
<path d="M23.6164 1.3511L22.8302 0.5265C22.5828 0.268977 22.2536 0.127106 21.9018 0.127106C21.5502 0.127106 21.2207 0.268977 20.9732 0.5265L12.0054 9.86844L3.02715 0.516134C2.78012 0.258611 2.45056 0.116943 2.09894 0.116943C1.74733 0.116943 1.41757 0.258611 1.17035 0.516134L0.384003 1.33565C-0.128001 1.86858 -0.128001 2.73668 0.384003 3.26961L11.0737 14.4447C11.3207 14.702 11.6499 14.8833 12.0046 14.8833H12.0087C12.3605 14.8833 12.6897 14.7018 12.9367 14.4447L23.6164 3.2999C23.8638 3.04258 23.9996 2.68932 24 2.32306C24 1.95659 23.8638 1.60822 23.6164 1.3511Z" fill="#1D1D1D"/>
</svg>
